<svg t="1745057020183" class="icon" viewBox="0 0 1024 1024" version="1.1" xmlns="http://www.w3.org/2000/svg" p-id="20427" width="200" height="200"><path d="M407.236923 368.049231l36.903385 10.555077c4.844308 1.378462 4.844308 8.270769 0 9.64923l-36.94277 10.555077c-24.772923 7.089231-44.110769 26.584615-51.160615 51.515077l-10.476308 37.218462a4.962462 4.962462 0 0 1-9.570461 0l-10.476308-37.218462a74.555077 74.555077 0 0 0-51.2-51.515077l-36.942769-10.515692c-4.844308-1.417846-4.844308-8.270769 0-9.688615l36.942769-10.515693a74.515692 74.515692 0 0 0 51.2-51.554461l10.476308-37.179077a4.962462 4.962462 0 0 1 9.570461 0l10.476308 37.179077c7.049846 24.930462 26.387692 44.425846 51.2 51.515077z m-144.659692 190.857846l51.712 12.681846c6.774154 1.654154 6.774154 9.924923 0 11.579077l-51.712 12.681846c-34.697846 8.467692-61.833846 31.901538-71.68 61.833846l-14.651077 44.583385c-1.929846 5.868308-11.500308 5.868308-13.430154 0l-14.651077-44.622769c-9.846154-29.932308-36.982154-53.326769-71.68-61.833846l-51.712-12.603077c-6.774154-1.693538-6.774154-9.964308 0-11.618462l51.712-12.642461c34.697846-8.507077 61.833846-31.901538 71.68-61.833847l14.651077-44.662153c1.929846-5.828923 11.500308-5.828923 13.430154 0l14.651077 44.662153c9.846154 29.932308 36.982154 53.326769 71.68 61.833847z m459.894154-78.532923L680.054154 361.944615c-23.236923 0.393846-48.561231 0.551385-75.894154 0.551385-15.675077 0-40.566154-0.196923-74.712615-0.551385-8.349538 17.053538-14.848 30.129231-19.495385 39.227077l-16.029538 30.956308-150.449231 276.755692-24.103385 40.920616c32.768-0.393846 56.516923-0.551385 71.286154-0.551385 8.152615 0 30.326154 0.157538 66.402462 0.551385 17.998769-40.172308 35.446154-76.918154 52.263384-110.276923h146.432a1223.68 1223.68 0 0 1 36.824616 110.276923c31.665231-0.393846 55.611077-0.590769 71.916307-0.59077 7.168 0 27.569231 0.196923 61.124923 0.551385l-16.856615-41.432615-86.291692-227.91877zM542.72 548.627692l20.676923-38.281846c8.822154-16.147692 19.534769-36.942769 32.177231-62.227692 2.126769 6.183385 14.296615 39.699692 36.470154 100.470154l-89.324308 0.039384z m329.334154-186.722461l0.315077 36.627692c0 82.038154-5.671385 199.128615-16.935385 351.232 36.430769-0.393846 60.573538-0.551385 72.349539-0.551385l60.258461 0.551385c0-32.571077 0.630154-71.955692 1.811692-118.075077 1.181538-46.119385 3.150769-95.704615 5.907693-148.755692 2.126769-38.084923 5.001846-78.414769 8.546461-121.028923-36.903385 0.393846-58.013538 0.551385-63.330461 0.551384-11.579077 0-34.540308-0.196923-68.923077-0.551384z" fill="#3470FF" p-id="20428"></path></svg>