<svg t="1747837516629" class="icon" viewBox="0 0 1024 1024" version="1.1" xmlns="http://www.w3.org/2000/svg" p-id="9657" id="mx_n_1747837516631" width="200" height="200"><path d="M307.2 221.866667H938.666667a85.333333 85.333333 0 0 1 85.333333 85.333333V938.666667a85.333333 85.333333 0 0 1-85.333333 85.333333H307.2a85.333333 85.333333 0 0 1-85.333333-85.333333V307.2a85.333333 85.333333 0 0 1 85.333333-85.333333z m332.8 314.88L516.266667 413.013333a34.133333 34.133333 0 0 0-48.213334 0l-42.24 42.24a34.133333 34.133333 0 0 0 0 48.213334l123.733334 123.733333L425.813333 750.933333a34.133333 34.133333 0 0 0 0 48.213334l42.24 42.24a34.133333 34.133333 0 0 0 48.213334 0L640 717.653333l123.733333 123.733334a34.133333 34.133333 0 0 0 48.213334 0l42.24-42.24a34.133333 34.133333 0 0 0 0-48.213334L730.453333 627.2l123.733334-123.733333a34.133333 34.133333 0 0 0 0-48.213334l-42.24-42.24a34.133333 34.133333 0 0 0-48.213334 0L640 536.746667zM768 136.533333H221.866667a85.333333 85.333333 0 0 0-85.333334 85.333334V853.333333H68.266667a68.266667 68.266667 0 0 1-68.266667-68.266666V85.333333a85.333333 85.333333 0 0 1 85.333333-85.333333h614.4a68.266667 68.266667 0 0 1 68.266667 68.266667v68.266666z" fill="#589ef7" p-id="9658"></path></svg>