<svg t="1747838240355" class="icon" viewBox="0 0 1024 1024" version="1.1" xmlns="http://www.w3.org/2000/svg" p-id="22710" width="200" height="200"><path d="M512 128c212.064 0 384 171.936 384 384s-171.936 384-384 384S128 724.064 128 512 299.936 128 512 128z m112.864 544h-227.584a999.296 999.296 0 0 0 38.112 150.784c24.576 6.016 50.24 9.216 76.608 9.216 25.664 0 50.624-3.008 74.56-8.736 9.696-28.768 22.464-79.2 38.304-151.264z m164.32 0.032h-99.456a1044.224 1044.224 0 0 1-27.2 122.4 321.472 321.472 0 0 0 126.656-122.4z m-456.768 0h-97.6a321.536 321.536 0 0 0 124.448 121.248 1044.576 1044.576 0 0 1-26.848-121.28z m-7.456-256H206.656A319.872 319.872 0 0 0 192 512c0 33.472 5.12 65.728 14.656 96h117.664a990.56 990.56 0 0 1 0.64-192z m307.904 0h-243.584a926.816 926.816 0 0 0-0.64 192h244.896a926.816 926.816 0 0 0-0.672-192z m184.48 0h-120.128a990.56 990.56 0 0 1 0.64 192h119.488A319.872 319.872 0 0 0 832 512c0-33.44-5.12-65.696-14.656-96zM360.192 230.176c-50.048 28.16-96.64 72.096-125.376 121.792h98.496c6.56-40.416 15.52-80 26.88-121.792zM512 192c-26.24 0-51.744 3.168-76.16 9.12A1080.096 1080.096 0 0 0 398.208 352h225.728a1085.184 1085.184 0 0 0-37.76-151.36A320.032 320.032 0 0 0 512 192z m149.568 37.056c10.56 38.72 21.056 84.544 27.264 122.944h100.352a321.504 321.504 0 0 0-127.616-122.944z" fill="#515151" p-id="22711"></path></svg>