<svg t="1745057190652" class="icon" viewBox="0 0 1024 1024" version="1.1" xmlns="http://www.w3.org/2000/svg" p-id="21389" width="200" height="200"><path d="M512 85.357714a426.642286 426.642286 0 1 1 0 853.284572A426.642286 426.642286 0 0 1 512 85.357714z m131.876571 588.946286l-15.36 1.901714A1037.897143 1037.897143 0 0 1 512 682.642286c-46.006857 0-90.331429-2.925714-131.803429-8.265143 27.062857 120.100571 81.627429 200.265143 131.803429 200.265143 50.176 0 104.667429-80.164571 131.876571-200.338286z m-481.133714-64.219429l2.340572 7.972572a363.593143 363.593143 0 0 0 217.161142 232.667428c-31.232-47.981714-55.661714-112.859429-69.851428-187.830857-59.684571-12.653714-111.030857-30.866286-149.650286-52.809143z m698.514286 0l-4.900572 2.706286c-38.034286 20.772571-87.552 37.961143-144.749714 50.102857-14.189714 74.971429-38.619429 139.849143-69.851428 187.830857a363.446857 363.446857 0 0 0 219.428571-240.64zM512 405.211429c-51.2 0-99.620571 4.096-143.36 10.825142a768.585143 768.585143 0 0 0-0.073143 191.707429c43.812571 6.802286 92.233143 10.825143 143.433143 10.825143 51.2 0 99.620571-4.022857 143.36-10.752a768.585143 768.585143 0 0 0 0.073143-191.707429C611.620571 409.380571 563.2 405.357714 512 405.357714z m-209.261714 23.698285C209.188571 451.584 149.357714 485.741714 149.357714 512c0 26.331429 59.977143 60.489143 153.380572 83.017143a846.994286 846.994286 0 0 1 0-166.034286z m418.523428 0l0.658286 6.290286a849.334857 849.334857 0 0 1-0.585143 159.744c93.257143-22.528 153.307429-56.685714 153.307429-83.017143s-59.977143-60.489143-153.380572-83.017143zM382.244571 173.348571l-4.534857 1.755429a363.52 363.52 0 0 0-215.04 238.957714c38.765714-22.016 89.965714-40.228571 149.723429-52.882285 14.189714-74.971429 38.619429-139.849143 69.851428-187.830858z m259.437715 0l0.731428 0.950858c30.939429 47.908571 55.149714 112.420571 69.193143 186.88 59.757714 12.653714 111.030857 30.866286 149.650286 52.809142a363.52 363.52 0 0 0-219.574857-240.64zM512 149.284571c-50.176 0-104.594286 80.091429-131.803429 200.265143A1033.654857 1033.654857 0 0 1 512 341.357714c46.006857 0 90.331429 2.925714 131.803429 8.265143-25.965714-114.834286-76.873143-193.170286-125.147429-199.826286L512 149.357714z" fill="#1e6fff" p-id="21390"></path></svg>