<svg t="1747837347276" class="icon" viewBox="0 0 1024 1024" version="1.1" xmlns="http://www.w3.org/2000/svg" p-id="8420" width="200" height="200"><path d="M900.383 53.78H163.758A123.29 123.29 0 0 0 40.1 176.66v655.36c0 67.83 55.378 122.88 123.658 122.88h736.666a123.29 123.29 0 0 0 123.617-122.88V176.66A123.33 123.33 0 0 0 900.383 53.78z m31.867 813.18h-800.4V141.68h800.4v725.28z" fill="#589ef7" p-id="8421"></path><path d="M245.556 265.42a84.5 84.5 0 1 0 169 0 84.5 84.5 0 1 0-169 0zM97.935 585.36s110.1-148.48 202.26-148.48 130.581 153.6 184.32 179.2c53.781 25.6 128 38.42 227.861-61.44 99.86-99.82 112.64-194.56 248.34-176.62l10.24 350.7-20.48 148.48-268.82 40.96-545.3-23.02-76.8-168.96 38.38-140.82z" fill="#589ef7" p-id="8422"></path></svg>