<svg t="1745051062935" class="icon" viewBox="0 0 1024 1024" version="1.1" xmlns="http://www.w3.org/2000/svg" p-id="4355" width="200" height="200"><path d="M1004.032 331.946667L762.709333 104.106667A70.4 70.4 0 0 0 714.410667 85.333333a70.4 70.4 0 0 0-48.298667 18.858667l-30.293333 28.586667a70.4 70.4 0 0 1-48.213334 18.858666H436.394667a70.314667 70.314667 0 0 1-48.213334-18.858666l-30.293333-28.586667A70.4 70.4 0 0 0 309.589333 85.333333a70.4 70.4 0 0 0-48.213333 18.858667L19.968 331.946667A62.634667 62.634667 0 0 0 0 377.429333c0 17.066667 7.168 33.450667 19.968 45.568l96.597333 91.050667a70.656 70.656 0 0 0 66.56 16.298667c10.837333-2.901333 21.674667 3.925333 21.674667 14.506666v329.386667c0 35.413333 30.72 64.426667 68.266667 64.426667h477.866666c37.546667 0 68.266667-29.013333 68.266667-64.426667v-329.386667c0-10.581333 10.837333-17.408 21.674667-14.506666a70.656 70.656 0 0 0 66.56-16.213334l96.597333-91.136A62.634667 62.634667 0 0 0 1024 377.429333c0-17.066667-7.168-33.450667-19.968-45.568z" fill="#589EF7" p-id="4356"></path></svg>